<svg width="64" height="64" viewBox="210 55 260 240" xmlns="http://www.w3.org/2000/svg">
  <defs>
    <linearGradient id="head-g4" x1="0" y1="0" x2="0.3" y2="1">
      <stop offset="0%" stop-color="#fce4d6"/>
      <stop offset="100%" stop-color="#F2A97E"/>
    </linearGradient>
    <linearGradient id="body-g4" x1="0" y1="0" x2="0" y2="1">
      <stop offset="0%" stop-color="#b8ddd4"/>
      <stop offset="100%" stop-color="#88C9B8"/>
    </linearGradient>
    <linearGradient id="hand-g4" x1="0" y1="0" x2="1" y2="1">
      <stop offset="0%" stop-color="#F7D7C4"/>
      <stop offset="100%" stop-color="#F2A97E"/>
    </linearGradient>
    <linearGradient id="halo-g4" x1="0" y1="0" x2="0" y2="1">
      <stop offset="0%" stop-color="#F7D7C4" stop-opacity="0.3"/>
      <stop offset="100%" stop-color="#88C9B8" stop-opacity="0.15"/>
    </linearGradient>
  </defs>
  <circle cx="340" cy="175" r="108" fill="url(#halo-g4)"/>
  <circle cx="340" cy="175" r="86" fill="#F2A97E" opacity="0.08"/>
  <path d="M232,222 Q216,180 238,144 Q254,116 280,110" fill="none" stroke="url(#hand-g4)" stroke-width="11" stroke-linecap="round" opacity="0.75"/>
  <path d="M448,222 Q464,180 442,144 Q426,116 400,110" fill="none" stroke="url(#hand-g4)" stroke-width="11" stroke-linecap="round" opacity="0.75"/>
  <path d="M305,195 Q300,212 302,242 Q306,268 340,273 Q374,268 378,242 Q380,212 375,195" fill="url(#body-g4)" opacity="0.85"/>
  <circle cx="340" cy="148" r="53" fill="url(#head-g4)"/>
  <path d="M328,97 Q334,85 340,96 Q346,84 352,97" fill="none" stroke="#d4875a" stroke-width="2.5" stroke-linecap="round" opacity="0.5"/>
  <path d="M319,148 Q325,142 331,148" fill="none" stroke="#7a5a45" stroke-width="2" stroke-linecap="round"/>
  <path d="M349,148 Q355,142 361,148" fill="none" stroke="#7a5a45" stroke-width="2" stroke-linecap="round"/>
  <path d="M333,161 Q340,167 347,161" fill="none" stroke="#7a5a45" stroke-width="1.8" stroke-linecap="round"/>
  <ellipse cx="317" cy="157" rx="7.5" ry="4.5" fill="#F2A97E" opacity="0.4"/>
  <ellipse cx="363" cy="157" rx="7.5" ry="4.5" fill="#F2A97E" opacity="0.4"/>
  <circle cx="387" cy="114" r="4" fill="#88C9B8" opacity="0.5"/>
  <circle cx="401" cy="96" r="6.5" fill="#88C9B8" opacity="0.4"/>
  <circle cx="418" cy="74" r="11" fill="#ddf0eb" stroke="#88C9B8" stroke-width="1"/>
  <path d="M414,71 Q410,66 414,63 Q418,61 421,65 L421,77 Q418,81 414,79 Q410,81 414,77 Z" fill="#88C9B8" opacity="0.6"/>
  <path d="M253,100 C253,95.5 258,92 262,95.5 C266,92 271,95.5 271,100 C271,106 262,111 262,111 C262,111 253,106 253,100Z" fill="#F2A97E" opacity="0.5"/>
  <path d="M246,136 Q254,125 262,136 Q254,130 246,136Z" fill="#88C9B8" opacity="0.5"/>
</svg>
